<svg xmlns="http://www.w3.org/2000/svg" xmlns:xlink="http://www.w3.org/1999/xlink" width="1242" height="315"><defs><linearGradient id="i" x1="0" x2="1" y1="0" y2="0" gradientTransform="scale(228.32723 -228.32723) rotate(-40.708 -2.85 -3.11)" gradientUnits="userSpaceOnUse" spreadMethod="pad"><stop offset="0" style="stop-opacity:1;stop-color:#5a9fd4"/><stop offset="1" style="stop-opacity:1;stop-color:#124582"/></linearGradient><linearGradient id="h" x1="0" x2="1" y1="0" y2="0" gradientTransform="matrix(141.69434 0 0 -141.69434 432.168 640.61)" gradientUnits="userSpaceOnUse" spreadMethod="pad"><stop offset="0" style="stop-opacity:1;stop-color:#ffd400"/><stop offset="1" style="stop-opacity:1;stop-color:#ffe800"/></linearGradient><linearGradient id="g" x1="0" x2="1" y1="0" y2="0" gradientTransform="scale(614.41306 -614.41306) rotate(69.697 1.474 .117)" gradientUnits="userSpaceOnUse" spreadMethod="pad"><stop offset="0" style="stop-opacity:1;stop-color:#5a9fd4"/><stop offset="1" style="stop-opacity:1;stop-color:#124582"/></linearGradient><linearGradient id="f" x1="0" x2="1" y1="0" y2="0" gradientTransform="scale(614.41996 -614.41996) rotate(69.697 1.351 .031)" gradientUnits="userSpaceOnUse" spreadMethod="pad"><stop offset="0" style="stop-opacity:1;stop-color:#5a9fd4"/><stop offset="1" style="stop-opacity:1;stop-color:#124582"/></linearGradient><linearGradient id="e" x1="0" x2="1" y1="0" y2="0" gradientTransform="scale(614.42393 -614.42393) rotate(69.697 1.25 -.039)" gradientUnits="userSpaceOnUse" spreadMethod="pad"><stop offset="0" style="stop-opacity:1;stop-color:#5a9fd4"/><stop offset="1" style="stop-opacity:1;stop-color:#124582"/></linearGradient><linearGradient id="d" x1="0" x2="1" y1="0" y2="0" gradientTransform="scale(614.42978 -614.42978) rotate(69.697 1.143 -.114)" gradientUnits="userSpaceOnUse" spreadMethod="pad"><stop offset="0" style="stop-opacity:1;stop-color:#5a9fd4"/><stop offset="1" style="stop-opacity:1;stop-color:#124582"/></linearGradient><linearGradient id="c" x1="0" x2="1" y1="0" y2="0" gradientTransform="scale(614.44716 -614.44716) rotate(69.697 1.058 -.173)" gradientUnits="userSpaceOnUse" spreadMethod="pad"><stop offset="0" style="stop-opacity:1;stop-color:#5a9fd4"/><stop offset="1" style="stop-opacity:1;stop-color:#124582"/></linearGradient><linearGradient id="b" x1="0" x2="1" y1="0" y2="0" gradientTransform="scale(614.43011 -614.43011) rotate(69.697 1.549 .169)" gradientUnits="userSpaceOnUse" spreadMethod="pad"><stop offset="0" style="stop-opacity:1;stop-color:#5a9fd4"/><stop offset="1" style="stop-opacity:1;stop-color:#124582"/></linearGradient><linearGradient id="a" x1="0" x2="1" y1="0" y2="0" gradientTransform="scale(614.43303 -614.43303) rotate(69.697 1.395 .061)" gradientUnits="userSpaceOnUse" spreadMethod="pad"><stop offset="0" style="stop-opacity:1;stop-color:#5a9fd4"/><stop offset="1" style="stop-opacity:1;stop-color:#124582"/></linearGradient><linearGradient xlink:href="#a" id="j" x1="0" x2="1" y1="0" y2="0" gradientTransform="scale(614.43303 -614.43303) rotate(69.697 1.395 .061)" gradientUnits="userSpaceOnUse" spreadMethod="pad"/><linearGradient xlink:href="#b" id="k" x1="0" x2="1" y1="0" y2="0" gradientTransform="scale(614.43011 -614.43011) rotate(69.697 1.549 .169)" gradientUnits="userSpaceOnUse" spreadMethod="pad"/><linearGradient xlink:href="#c" id="l" x1="0" x2="1" y1="0" y2="0" gradientTransform="scale(614.44716 -614.44716) rotate(69.697 1.058 -.173)" gradientUnits="userSpaceOnUse" spreadMethod="pad"/><linearGradient xlink:href="#d" id="m" x1="0" x2="1" y1="0" y2="0" gradientTransform="scale(614.42978 -614.42978) rotate(69.697 1.143 -.114)" gradientUnits="userSpaceOnUse" spreadMethod="pad"/><linearGradient xlink:href="#e" id="n" x1="0" x2="1" y1="0" y2="0" gradientTransform="scale(614.42393 -614.42393) rotate(69.697 1.25 -.039)" gradientUnits="userSpaceOnUse" spreadMethod="pad"/><linearGradient xlink:href="#f" id="o" x1="0" x2="1" y1="0" y2="0" gradientTransform="scale(614.41996 -614.41996) rotate(69.697 1.351 .031)" gradientUnits="userSpaceOnUse" spreadMethod="pad"/><linearGradient xlink:href="#g" id="p" x1="0" x2="1" y1="0" y2="0" gradientTransform="scale(614.41306 -614.41306) rotate(69.697 1.474 .117)" gradientUnits="userSpaceOnUse" spreadMethod="pad"/><linearGradient xlink:href="#h" id="q" x1="0" x2="1" y1="0" y2="0" gradientTransform="matrix(141.69434 0 0 -141.69434 432.168 640.61)" gradientUnits="userSpaceOnUse" spreadMethod="pad"/><linearGradient xlink:href="#i" id="r" x1="0" x2="1" y1="0" y2="0" gradientTransform="scale(228.32723 -228.32723) rotate(-40.708 -2.85 -3.11)" gradientUnits="userSpaceOnUse" spreadMethod="pad"/></defs><path d="M596.695 766.284V553.532h33.432v79.934h15.802c33.435 0 49.848 18.537 49.848 52.584v27.651c0 34.041-16.413 52.583-49.848 52.583h-49.234zm33.432-30.391h15.802c10.636 0 16.412-4.868 16.412-20.059v-31.91c0-15.199-5.776-20.068-16.412-20.068h-15.802v72.037z" style="fill:url(#j);stroke:none" transform="matrix(1.02843 0 0 -1.02843 -237.5 835.736)"/><path d="m785.749 766.284-25.526-96.957-25.531 96.957h-34.954l42.248-142.241v-70.511h33.431v70.511l42.245 142.241h-31.913z" style="fill:url(#k);stroke:none" transform="matrix(1.02843 0 0 -1.02843 -231.5 835.736)"/><path d="M360.585 515.831v-25.103h28.864V340.103h27.613v150.625h28.867v25.103h-85.344z" style="fill:url(#l);stroke:none" transform="matrix(1.25 0 0 -1.25 172.51 692.459)"/><path d="M457.988 515.831V340.103h75.305v25.11h-47.696v51.469h37.9v25.097h-37.9v48.949h47.696v25.103h-75.305z" style="fill:url(#m);stroke:none" transform="matrix(1.25 0 0 -1.25 172.51 692.459)"/><path d="m616.895 515.831-21.336-64.773-20.836 64.773h-28.612l28.862-85.346-30.874-90.382h25.853l22.846 69.543 22.596-69.543h29.114l-30.875 90.382 28.869 85.346h-25.607z" style="fill:url(#n);stroke:none" transform="matrix(1.25 0 0 -1.25 172.51 692.459)"/><path d="m679.161 515.831-28.118-175.728h25.353l4.771 31.887h33.889l4.771-31.887h27.86l-28.114 175.728h-40.412zm18.821-31.125 13.308-88.865h-26.608l13.3 88.865z" style="fill:url(#o);stroke:none" transform="matrix(1.25 0 0 -1.25 172.51 692.459)"/><path d="M756.999 473.655c0-50.205 53.962-56.973 53.962-93.124 0-12.562-5.53-17.065-14.313-17.065-8.788 0-14.305 4.503-14.305 17.065v12.545h-26.106v-10.797c0-28.106 14.062-44.179 41.17-44.179 27.108 0 41.163 16.073 41.163 44.179 0 50.208-53.963 56.989-53.963 93.14 0 12.54 5.018 17.307 13.801 17.307 8.788 0 13.809-4.767 13.809-17.307v-7.29h26.107v5.526c0 28.117-13.809 44.177-40.667 44.177-26.862 0-40.658-16.06-40.658-44.177" style="fill:url(#p);stroke:none" transform="matrix(1.21721 0 0 -1.21721 197.303 677.983)"/><path d="M532.409 726.792c-1.701-1.989-5.342-1.034-8.349-2.086-.829-.293-1.492-.852-2.13-1.387v-31.014c0-11.794-9.381-21.468-21.137-21.468h-42.219c-14.337 0-26.406-12.303-26.406-26.255v-13.05c.375-.505.776-.979 1.241-1.357 1.241-1.022 2.8-1.488 4.17-2.689 3.56-3.087 5.36-5.377 7.161-9.843 1.991-4.941 5.511-9.126 6.856-14.309 4.412-1.323 5.392-6.544 8.35-10.136 2.37-2.888 8.527-3.278 6.261-9.246 2.058-1.484.91-3.85 1.493-5.962.524-1.9 2.931-3.435 3.877-5.369 1.425-2.909 1.586-5.746 3.577-7.752 3.878.02 5.536-2.346 8.053-3.283 1.032-.381 2.427-.165 3.578-.598 1.758-.657 3.102-2.527 4.773-2.981 1.561-.425 3.145-.263 4.735-.101 1.7.173 3.408.347 5.104-.196 2.235-.713 3.645-3.902 6.264-4.178 1.153.764.916 1.659 1.785 2.388 1.116.933 2.142.149 2.686 1.79.811 2.443-1.252 7.4-2.086 9.839-1.825 5.339-3.837 8.935-2.983 15.806.963 7.723 5.871 15.976 11.033 20.276 1.524 1.273 3.505 2.002 5.072 3.282 1.656 1.353 2.566 2.761 4.171 3.876 4.905 3.414 10.856 5.611 15.51 9.242 2.103 1.645 3.77 4.452 5.962 6.268 1.442 1.187 3.083 1.772 4.175 2.981.819.899 1.27 2.184 2.091 2.982 3.626 3.532 9.186 4.6 14.012 6.861.716 1.345-.532 1.714-.299 2.982.318 1.717 3.007 3.579 3.282 5.662.213 1.628-1.035 3.273-1.193 5.068-.375 4.244.757 8.1 2.983 9.542v8.35c-3.859 1.107-3.341 6.599-6.263 8.648v2.981c-.824 2.489-3.96 3.584-4.774 6.561-1.296 4.775-1.068 13.782-1.491 20.576-.271 4.415.543 8.466-1.488 11.332-8.088-.903-13.965 3.889-19.981 6.862-1.984-1.573-4.666-2.354-7.456-.895" style="fill:url(#q);stroke:none" transform="matrix(1.25 0 0 -1.25 -404.194 990.316)"/><path d="M402.106 778.973v-96.181h-66.808v-2.222c5.311-.254 5.208-5.887 8.052-8.35.904-.785 2.36-.844 3.28-1.493 2.26-1.586 4.052-4.288 5.965-6.264 2.01-2.074 4.022-4.113 5.962-6.26 2.812-.644 6.388-3.002 7.753-5.967.373-.81.208-2.027.598-2.981.746-1.81 2.39-3.066 2.684-4.474.325-1.553-.269-3.304 0-4.771.367-2.011 1.9-4.962 2.982-6.561 1.029-1.519 3.058-2.074 5.07-3.575 1.505-1.12 2.29-2.808 3.577-3.575 1.243-.747 2.799-.814 4.173-1.493 4.057-2.001 7.888-5.679 12.227-6.267 1.857 1.734 3.027 4.134 5.371 5.368.509 1.951.897 4.054 1.504 5.929.665 2.065 1.601 3.85 3.265 4.813 2.021 1.162 4.674.891 6.561 2.676 2.336-1.71 5.606-1.67 8.69-1.631 2.071.026 4.06.053 5.621-.451 1.556-.5 2.441-2.239 3.535-3.711v13.05c0 13.952 12.069 26.255 26.406 26.255h42.219c11.756 0 21.137 9.674 21.137 21.468v31.014c-.826-.691-1.609-1.336-2.641-1.298-2.08.072-3.182 2.024-5.068 2.982-2.321-1.786-3.566.152-5.665.895-1.609-.582-.798-3.58-2.984-3.58-1.266.124-.023 2.757-1.787 2.388-.844.112-1.218-.247-1.59-.607-.388-.373-.776-.747-1.693-.589-1.594.89-2.662 2.307-4.771 2.685-1.618-.569-1.739-2.635-3.876-2.685-1.052 2.43-3.142 3.812-4.771 5.665-2.923.544-3.499-.266-5.666-.894-3.457 1.395-7.654 1.315-11.929 2.388-1.362 1.577-1.038 3.668-2.982 4.168-1.097.289-2.15-.071-3.2-.432-1.011-.346-2.02-.694-3.062-.459-1.083.242-5.239 3.784-5.666 5.073-.433 1.302.083 3.299 0 5.068a391.734 391.734 0 0 0-.295 9.559c-.163 8.168-.201 17.376-.303 25.327h-51.875z" style="fill:url(#r);stroke:none" transform="matrix(1.25 0 0 -1.25 -404.194 990.316)"/></svg>